<svg xmlns="http://www.w3.org/2000/svg" width="110" height="125" viewBox="0 0 110 125">
  <path fill-rule="evenodd" d="M105.990446,17.0869828 C102.993894,15.0798892 100.227909,13.0489532 97.2942143,11.2987069 C90.7681798,7.40535714 83.6249532,5.26144089 76.1062094,4.39065271 C67.5519483,3.40011084 59.0635246,3.63149015 50.8024163,6.36360837 C36.4495837,11.1101355 25.9754704,20.3490517 19.7845837,34.1142241 C11.9179581,51.6055788 11.5446084,69.5469581 18.6173916,87.2677956 C26.0304704,105.840727 40.0820222,116.554347 59.946234,119.431958 C71.094165,121.046736 81.6845099,119.035579 91.7766034,114.196392 C95.5721453,112.376786 97.6559138,109.242328 98.1633768,105.087254 C98.3381305,103.657525 98.4145345,102.207204 98.416702,100.766367 C98.4356675,88.3038547 98.4275394,75.8413424 98.4275394,63.37883 L98.4275394,61.6651601 L109.927687,61.6651601 L109.927687,116.942328 C104.000963,113.88319 98.3676626,115.569224 92.8568251,117.949126 C83.5778103,121.956268 73.9240911,124.082574 63.8184507,124.149766 C52.2313325,124.226983 41.2234754,121.826219 31.0666281,116.149027 C16.0624655,107.763017 6.26135714,95.1850862 2.17618473,78.5190025 C-2.45519458,59.6252833 0.170445813,41.7264409 11.3546823,25.5512931 C19.1492389,14.2784606 29.9790911,6.98947044 43.0344113,2.94385468 C50.3954704,0.663115764 57.9396823,-0.170012315 65.615569,0.0280418719 C73.7154704,0.237204433 81.7403227,0.953288177 89.4565788,3.68594828 C95.205569,5.72176108 100.430298,8.71099754 105.28249,12.3735099 C105.601653,12.6143719 105.931924,13.0587069 105.958475,13.4296182 C106.044091,14.6293227 105.990446,15.8387808 105.990446,17.0869828"/>
</svg>
