<svg xmlns="http://www.w3.org/2000/svg" width="85" height="105" viewBox="0 0 85 105"><path fill-rule="evenodd" d="M76.56 80.7c4.81.26 7.8 3.25 7.54 7.67-.26 8.97-9.49 15.99-19.76 15.73-5.72-.26-12.09-2.6-18.33-7.28L28.59 83.56c-6.63-5.07-10.92-1.56-11.18 2.73 0 4.16-3.64 7.02-7.8 7.02-4.29-.26-7.41-3.9-7.41-7.8.13-5.72 4.55-10.4 10.27-12.87C5.32 65.36.9 54.83.9 41.44.9 16.48 18.97.1 41.72.1c22.36 0 40.69 17.68 40.69 41.34 0 22.49-15.73 39.91-35.75 42.51l10.4 8.45c6.89 5.59 11.44 1.04 11.7-4.42.26-4.55 2.73-7.28 7.8-7.28zM39.38 9.2c-11.05 0-19.37 7.8-19.37 28.47 0 21.06 10.14 35.88 24.7 35.88 9.88 0 18.59-4.94 18.59-28.08C63.3 23.5 53.94 9.2 39.38 9.2z"/></svg>