<svg xmlns="http://www.w3.org/2000/svg" width="142" height="121" viewBox="0 0 142 121"><path fill-rule="evenodd" d="M18.72 61.102v14.17c0 4.55 1.82 5.33 4.68 5.98l2.99.65v6.5H0v-6.5l2.99-.65c2.86-.65 4.68-1.43 4.68-5.98V13.13c0-4.42-2.08-5.33-5.46-6.11L0 6.5V0h26.39v6.5l-2.21.52c-3.38.78-5.46 1.69-5.46 6.11v34.58L51.743 9.1c-1.69-1.17-4.94-2.34-7.02-2.99V0h27.82v6.24s-5.2 1.95-8.84 4.55l-22.1 24.96c34.19 60.713 48.88 75.404 69.292 75.404 12.61 0 16.64-4.55 20.41-10.01h9.75v7.15c-4.94 7.28-14.56 12.61-30.16 12.61-30.16 0-43.552-18.98-76.703-77.223L18.72 61.103z"/></svg>