<svg xmlns="http://www.w3.org/2000/svg" width="142" height="121" viewBox="0 0 142 121">
  <path fill="#000000" fill-rule="evenodd" d="M256.7209,867.1023 L256.7209,881.2723 C256.7209,885.8233 258.5409,886.6023 261.3999,887.2523 L264.3909,887.9033 L264.3909,894.4033 L237.9999,894.4033 L237.9999,887.9033 L240.9899,887.2523 C243.8499,886.6023 245.6699,885.8233 245.6699,881.2723 L245.6699,819.1303 C245.6699,814.7103 243.5899,813.8003 240.2099,813.0203 L237.9999,812.4993 L237.9999,805.9993 L264.3909,805.9993 L264.3909,812.4993 L262.1809,813.0203 C258.8009,813.8003 256.7209,814.7103 256.7209,819.1303 L256.7209,853.7113 L289.7419,815.1003 C288.0519,813.9303 284.8019,812.7603 282.7219,812.1103 L282.7219,805.9993 L310.5429,805.9993 L310.5429,812.2403 C310.5429,812.2403 305.3419,814.1903 301.7019,816.7903 L279.6019,841.7513 C313.7929,902.4633 328.4829,917.1543 348.8939,917.1543 C361.5039,917.1543 365.5349,912.6033 369.3049,907.1433 L379.0549,907.1433 L379.0549,914.2933 C374.1149,921.5743 364.4949,926.9043 348.8939,926.9043 C318.7329,926.9043 305.3419,907.9233 272.1909,849.6813 L256.7209,867.1023 Z" transform="translate(-238 -806)"/>
</svg>
