<?xml version="1.0" encoding="UTF-8" standalone="no"?>
<svg width="63px" height="95px" viewBox="0 0 63 95" version="1.1" xmlns="http://www.w3.org/2000/svg" xmlns:xlink="http://www.w3.org/1999/xlink">
    <!-- Generator: Sketch 42 (36781) - http://www.bohemiancoding.com/sketch -->
    <title>g</title>
    <desc>Created with Sketch.</desc>
    <defs></defs>
    <g id="Page-1" stroke="none" stroke-width="1" fill="none" fill-rule="evenodd">
        <path d="M31.71,94.56 C14.81,94.56 0.64,82.99 0.64,67 C0.64,56.21 7.53,46.85 14.94,43.21 C10.26,40.09 5.19,32.81 5.19,25.27 C5.19,10.97 17.54,0.44 31.71,0.44 L61.35,0.44 L61.35,9.67 L51.21,11.88 C54.2,14.61 57.58,19.42 57.58,26.57 C57.58,34.11 52.64,40.61 47.83,43.21 C55.24,46.85 62.13,56.21 62.13,67 C62.13,82.99 48.61,94.56 31.71,94.56 Z M31.71,37.75 C39.25,37.75 43.8,32.42 43.8,25.79 C43.8,19.29 38.99,13.7 31.71,13.7 C24.69,13.7 18.97,19.29 18.97,25.79 C18.97,32.42 24.43,37.75 31.71,37.75 Z M31.71,81.3 C41.2,81.3 47.96,74.54 47.96,65.96 C47.96,57.25 40.68,50.49 31.71,50.49 C22.74,50.49 14.81,57.25 14.81,65.96 C14.81,74.54 22.22,81.3 31.71,81.3 Z" id="g" fill="#555555"></path>
    </g>
</svg>