<svg width="63" height="95" viewBox="0 0 63 95" xmlns="http://www.w3.org/2000/svg"><path d="M31.71 94.56C14.81 94.56.64 82.99.64 67c0-10.79 6.89-20.15 14.3-23.79-4.68-3.12-9.75-10.4-9.75-17.94C5.19 10.97 17.54.44 31.71.44h29.64v9.23l-10.14 2.21c2.99 2.73 6.37 7.54 6.37 14.69 0 7.54-4.94 14.04-9.75 16.64 7.41 3.64 14.3 13 14.3 23.79 0 15.99-13.52 27.56-30.42 27.56zm0-56.81c7.54 0 12.09-5.33 12.09-11.96 0-6.5-4.81-12.09-12.09-12.09-7.02 0-12.74 5.59-12.74 12.09 0 6.63 5.46 11.96 12.74 11.96zm0 43.55c9.49 0 16.25-6.76 16.25-15.34 0-8.71-7.28-15.47-16.25-15.47-8.97 0-16.9 6.76-16.9 15.47 0 8.58 7.41 15.34 16.9 15.34z" fill-rule="evenodd"/></svg>
