<svg width="35" height="127" viewBox="0 0 35 127" xmlns="http://www.w3.org/2000/svg"><title>j</title><path d="M.303 115.82c0-2.708.91-4.993 2.73-6.855 1.819-1.862 4.21-2.793 7.172-2.793 2.92 0 5.247.963 6.982 2.888 1.736 1.926 2.603 4.475 2.603 7.649 3.216-2.074 4.824-5.798 4.824-11.172l-1.015-1.46-7.427-2.983-1.016-1.143V49.233c0-1.311-.54-2.507-1.618-3.586-1.08-1.08-2.275-1.619-3.587-1.619H8.618l-1.27-1.27v-3.935l21.075-8.061h3.872l1.333 1.333-1.333 11.933v60.493c0 3.936-.593 7.374-1.777 10.315-1.185 2.942-2.772 5.205-4.761 6.792-1.99 1.587-4.094 2.751-6.316 3.492-2.222.74-4.56 1.11-7.014 1.11-3.597 0-6.517-.962-8.76-2.888-2.243-1.925-3.364-4.432-3.364-7.522zM13.062 11.274c0-3.004 1.047-5.575 3.142-7.712C18.298 1.425 20.806.356 23.726.356c3.004 0 5.575 1.069 7.712 3.206 2.137 2.137 3.206 4.708 3.206 7.712 0 2.92-1.069 5.428-3.206 7.522-2.137 2.095-4.708 3.142-7.712 3.142-2.92 0-5.428-1.047-7.522-3.142-2.095-2.094-3.142-4.602-3.142-7.522z" fill="#555" fill-rule="evenodd"/></svg>