<svg width="35" height="127" viewBox="0 0 35 127" xmlns="http://www.w3.org/2000/svg"><title>j</title><path d="M.303 115.82c0-2.708.91-4.993 2.73-6.855 1.82-1.862 4.21-2.793 7.172-2.793 2.92 0 5.247.963 6.982 2.888 1.736 1.926 2.603 4.475 2.603 7.65 3.216-2.075 4.824-5.8 4.824-11.173l-1.015-1.46-7.43-2.983-1.016-1.143V49.236c0-1.31-.54-2.507-1.618-3.586-1.08-1.08-2.275-1.62-3.587-1.62H8.62l-1.27-1.27v-3.935l21.075-8.06h3.872l1.333 1.332-1.333 11.933v60.492c0 3.937-.593 7.375-1.777 10.316-1.185 2.942-2.772 5.205-4.76 6.792-1.99 1.587-4.095 2.75-6.317 3.492-2.22.74-4.56 1.11-7.013 1.11-3.597 0-6.517-.962-8.76-2.888-2.243-1.925-3.364-4.432-3.364-7.522zm12.76-104.546c0-3.004 1.046-5.575 3.14-7.712C18.3 1.425 20.807.356 23.727.356c3.004 0 5.575 1.07 7.712 3.206 2.135 2.137 3.204 4.708 3.204 7.712 0 2.92-1.07 5.428-3.206 7.522-2.138 2.095-4.71 3.142-7.713 3.142-2.92 0-5.428-1.047-7.522-3.142-2.095-2.094-3.142-4.602-3.142-7.522z" fill-rule="evenodd"/></svg>