<svg width="101" height="97" viewBox="0 0 101 97" xmlns="http://www.w3.org/2000/svg"><title>G</title><path d="M.332 48.868c0-6.22 1.08-12.24 3.237-18.06 2.157-5.818 5.235-10.927 9.234-15.33 4-4.4 8.855-7.922 14.568-10.567C33.086 2.268 39.497.945 46.606.945c5.206 0 10.02.71 14.44 2.127C65.47 4.49 69.373 6.436 72.76 8.91c3.383 2.476 6.134 5.386 8.25 8.73 2.116 3.342 3.47 6.92 4.062 10.726H73.14c-.593-2.327-1.65-4.517-3.174-6.57-1.524-2.052-3.417-3.83-5.68-5.332-2.265-1.502-4.868-2.687-7.81-3.554-2.94-.87-6.146-1.303-9.616-1.303-5.374 0-10.188 1.016-14.44 3.047-4.254 2.032-7.872 4.782-10.855 8.252-2.983 3.47-5.258 7.438-6.824 11.902-1.564 4.465-2.346 9.11-2.346 13.933 0 4.7.76 9.26 2.285 13.68 1.522 4.424 3.776 8.35 6.76 11.776 2.982 3.428 6.706 6.158 11.17 8.19 4.465 2.03 9.618 3.046 15.457 3.046 4.486 0 8.464-.634 11.934-1.904 3.47-1.27 6.465-2.983 8.983-5.14a23.874 23.874 0 0 0 5.967-7.714c1.46-2.983 2.464-6.252 3.014-9.807H56.51V50.2h43.798v10.665h-9.776c-.846 5.205-2.422 9.966-4.73 14.282-2.305 4.317-5.278 8.04-8.917 11.172-3.64 3.13-7.903 5.542-12.79 7.235-4.888 1.692-10.38 2.54-16.473 2.54-7.702 0-14.473-1.324-20.312-3.97-5.84-2.643-10.78-6.156-14.822-10.536s-7.078-9.406-9.11-15.076C1.348 60.844.333 54.962.333 48.868z" fill-rule="evenodd"/></svg>