<svg xmlns="http://www.w3.org/2000/svg" width="99" height="100" viewBox="0 0 99 100"><path fill-rule="evenodd" d="M52.254 24.664c8.5.684 16.003 6.502 18.094 14.77.388 1.533 1.016 2.04 2.53 2.003 3.333-.082 6.67-.024 10.006-.024h15.57c-.2-1.41-.334-2.394-.48-3.377-2.39-16.15-11.44-27.224-26.184-33.666C62.016.1 51.678-.863 41.16.71 26.71 2.872 15.026 9.66 7.445 22.367c-8.436 14.14-9.2 29.36-4.805 44.9 3.232 11.43 9.883 20.486 20.33 26.474 9.775 5.604 20.393 7.11 31.404 5.837 8.4-.972 15.634-4.51 21.104-11.186.902-1.1 1.758-2.236 2.635-3.356l.413.222-3.86 13.334h23.59V58.797H71.142c-.648 4.1-1.61 7.89-4.58 10.76-5.64 5.455-12.577 6.48-19.964 5.535-6.05-.774-11.083-3.48-14.67-8.563-4.113-5.833-4.947-12.468-4.52-19.333.82-13.21 9.17-23.796 24.846-22.533"/></svg>