<svg xmlns="http://www.w3.org/2000/svg" width="69" height="94" viewBox="0 0 69 94"><path fill-rule="evenodd" d="M69.36 0v1.34c0 19.785-.005 39.57 0 59.356.003 6.064-.99 11.895-3.877 17.314-3.05 5.724-7.573 9.95-13.52 12.368-11.57 4.707-23.33 4.865-34.957.244-7.53-2.992-12.404-8.702-15.01-16.348-1.34-3.926-1.968-7.98-1.98-12.118-.03-8.436-.01-16.87-.01-25.402h20.87v1.402c.002 6.86-.032 13.718.025 20.576.018 1.774.124 3.59.52 5.31 1.685 7.246 6.73 10.527 14.33 9.863 7.954-.695 10.69-6.56 11.376-11.822.182-1.396.206-2.82.207-4.23.014-18.705.01-37.41.01-56.114V0h22.02z"/></svg>