<svg xmlns="http://www.w3.org/2000/svg" width="81" height="92" viewBox="0 0 81 92"><path fill-rule="evenodd" d="M35.73 7.568c-5.046 0-9.918-.085-14.784.033-2.717.07-4.818 1.63-6.208 3.83-2.864 4.53-5.59 9.147-8.25 13.8-1.57 2.753-2.9 5.643-4.363 8.516L0 32.858 4.377 18.31C6.113 12.545 7.85 6.778 9.59 1.013c.158-.53.17-1.19 1.074-.968.705.17 1.435.043 1.52 1.174.12 1.58 1.072 2.51 2.66 2.842.722.153 1.473.232 2.212.237 8.305.06 16.61.137 24.916.14 7.065.003 14.13-.063 21.196-.157 1.01-.013 2.114-.157 2.988-.605.724-.37 1.58-1.236 1.66-1.958.17-1.587 1.052-1.736 2.45-1.68l9.88 32.81-2.146.91c-.467-.906-.9-1.787-1.37-2.65-3.053-5.618-6.065-11.26-9.205-16.83-.84-1.493-2.033-2.8-3.146-4.125-1.37-1.632-3.21-2.544-5.31-2.583-4.787-.088-9.577-.028-14.55-.028v1.342c0 24.837-.004 49.674.01 74.51 0 1.03.075 2.067.224 3.084.29 1.968 1.28 2.896 3.264 3.137 1.016.124 2.04.19 3.13.29v1.957H29.1c-.017-.226-.06-.58-.068-.932-.007-.323.026-.646.045-1.023 1.037-.1 2.015-.177 2.99-.28 2.09-.228 3.144-1.2 3.434-3.258.14-.98.22-1.974.22-2.962.01-24.877.01-49.755.01-74.632v-1.21"/></svg>