<svg xmlns="http://www.w3.org/2000/svg" width="226" height="273" viewBox="0 0 226 273"><path fill-rule="evenodd" d="M110.518 102.06c15.983 0 31.965-.01 47.948.01 2.66.003 5.206.044 4.748-3.816-1.252-10.543-1.357-21.368-3.903-31.587-10.784-43.294-55.704-44.035-78.16-22.214-14.766 14.35-20.904 32.302-23.032 52.204-.465 4.354.783 5.515 4.953 5.47 15.815-.168 31.632-.067 47.448-.067m113.013 92.224c-1.154 5.23-1.842 10.62-3.543 15.665-8.81 26.145-26.728 43.776-52.166 53.618-63.665 24.632-136.49-5.65-158.96-74.24C-6.015 143.934-2.55 99.413 22.215 57.942 41.37 25.87 69.764 6.432 107.246 1.38c31.05-4.185 60.188.798 85.784 19.782 18.233 13.524 28.908 31.888 31.592 54.588.565 4.775.405 9.63.716 14.44.197 3.042-1.21 4.496-4.034 5.29-45.473 12.786-90.933 25.62-136.39 38.457-7.366 2.08-14.69 4.307-22.074 6.32-2.248.615-3.486 1.37-2.987 4.06 6.83 36.767 27.83 66.024 66.476 74.708 33.596 7.55 64.76.086 91.844-21.996 1.352-1.103 2.72-2.186 4.078-3.277l1.28.53"/></svg>