<svg xmlns="http://www.w3.org/2000/svg" width="57" height="68" viewBox="0 0 57 68"><path fill-rule="evenodd" d="M27.624 25.51c3.995 0 7.99-.002 11.985.003.664 0 1.3.01 1.186-.954-.313-2.636-.34-5.342-.976-7.896C37.125 5.842 25.897 5.657 20.284 11.11c-3.69 3.588-5.225 8.075-5.757 13.05-.116 1.088.196 1.378 1.238 1.367 3.953-.042 7.906-.017 11.86-.017M55.87 48.562c-.288 1.307-.46 2.654-.886 3.915-2.2 6.535-6.68 10.942-13.04 13.402-15.912 6.156-34.115-1.413-39.73-18.557-3.72-11.346-2.853-22.474 3.337-32.84C10.34 6.466 17.438 1.608 26.807.345c7.76-1.046 15.044.2 21.44 4.945 4.56 3.38 7.227 7.97 7.898 13.644.14 1.193.1 2.407.18 3.61.048.76-.304 1.123-1.01 1.32-11.365 3.197-22.728 6.405-34.09 9.614-1.842.52-3.672 1.076-5.518 1.58-.562.153-.87.342-.746 1.014 1.708 9.19 6.957 16.503 16.616 18.674 8.398 1.887 16.188.02 22.957-5.498.338-.276.68-.546 1.02-.82l.32.134"/></svg>