<svg xmlns="http://www.w3.org/2000/svg" width="107" height="98" viewBox="0 0 107 98">
  <path fill="#000000" fill-rule="evenodd" d="M718.05,740.7 C716.49,742 709.86,743.69 696.47,743.69 C678.01,743.69 670.47,739.14 669.69,722.76 C669.04,711.19 666.7,707.68 660.72,707.68 L653.57,707.68 L653.57,742 L612.1,742 L612.1,646.45 L678.92,646.45 C699.72,646.45 712.59,656.46 712.59,671.02 C712.59,683.63 704.53,692.21 689.32,696.5 C705.18,697.93 709.86,706.25 710.77,722.89 C711.29,732.38 712.59,734.85 718.05,737.19 L718.05,740.7 Z M670.6,680.51 C670.6,675.18 668,671.02 661.5,671.02 L653.57,671.02 L653.57,690.26 L661.5,690.26 C668,690.26 670.6,686.1 670.6,680.51 Z" transform="translate(-612 -646)"/>
</svg>
