<svg xmlns="http://www.w3.org/2000/svg" width="55" height="147" viewBox="0 0 55 147">
  <path fill-rule="evenodd" d="M22.9852,21.7073 L22.9852,41.9513 C22.9852,54.2713 22.8372,66.5943 23.1082,78.9093 C23.1632,81.4393 24.8712,83.9103 25.6532,86.4593 C26.1072,87.9393 26.7482,89.6863 26.3252,90.9973 C26.0512,91.8503 24.0572,92.3733 22.7552,92.6113 C21.3072,92.8763 19.7692,92.6793 18.2722,92.6303 C6.6662,92.2523 1.2532,88.2363 0.5722,76.8523 C-0.2398,63.2743 -0.2068,49.5513 0.7932,35.9903 C1.6652,24.1673 10.4652,18.9893 22.9852,21.7073 Z M29.6009,60.4314 C29.5959,52.7704 29.6999,45.1084 29.5519,37.4504 C29.4779,33.6544 30.5659,29.6914 26.3639,26.6534 C24.0119,24.9534 26.1969,21.0944 29.4869,21.0384 C32.6379,20.9854 35.8349,21.0564 38.9409,21.5284 C47.3429,22.8064 51.7799,27.4344 51.9539,35.9524 C52.2399,49.9324 52.3089,63.9314 51.9209,77.9074 C51.6359,88.1834 41.8259,95.1104 31.8579,92.4584 C30.8219,92.1824 29.7339,89.8214 29.7049,88.4074 C29.5139,79.0854 29.6059,69.7574 29.6009,60.4314 Z M29.8636,146.3186 C29.8636,139.0326 29.7496,132.2566 29.9096,125.4876 C29.9946,121.8576 28.6756,119.9786 24.9616,119.3946 C19.7206,118.5716 14.5266,117.4226 9.3446,116.2666 C3.7066,115.0086 -0.0054,110.7506 0.1196,105.9386 C0.2616,100.4916 4.3816,96.0556 10.3486,95.5496 C14.1626,95.2266 18.5426,93.3986 21.2446,98.3656 C21.6996,99.2036 23.6256,99.3326 24.9096,99.6126 C30.7616,100.8866 36.6616,101.9536 42.4786,103.3696 C49.6936,105.1256 51.8406,107.9846 51.8956,115.3116 C51.9326,120.3036 51.9196,125.2976 51.8996,130.2916 C51.8586,140.5186 46.5566,145.9816 36.3406,146.3086 C34.3926,146.3716 32.4396,146.3186 29.8636,146.3186 Z M13.5706,146.4534 C5.6786,146.4444 0.8926,141.4314 0.9306,133.2154 C0.9666,125.3984 5.7736,120.6404 13.6626,120.6064 C21.5166,120.5744 26.8996,125.8644 26.8416,133.5574 C26.7826,141.2334 21.4026,146.4624 13.5706,146.4534 Z M30.1815,19.3064 C30.9345,12.1464 31.5565,6.2394 32.2125,-0.0006 L54.4215,-0.0006 C53.8255,2.3984 53.9825,5.5724 52.6765,6.3794 C45.6195,10.7394 40.2745,18.3364 30.1815,19.3064 Z"/>
</svg>
